<mxfile host="app.diagrams.net" modified="2023-08-03T16:37:02.438Z" agent="Mozilla/5.0 (Windows NT 10.0; Win64; x64; rv:109.0) Gecko/20100101 Firefox/115.0" etag="jRf3SRxi2an-dA9ZAp-u" version="21.6.6">
  <diagram name="Page-1" id="8Jg5CcEQyCT5EjR5HXEc">
    <mxGraphModel dx="794" dy="414" grid="1" gridSize="10" guides="1" tooltips="1" connect="1" arrows="1" fold="1" page="1" pageScale="1" pageWidth="850" pageHeight="1100" math="0" shadow="0">
      <root>
        <mxCell id="0" />
        <mxCell id="1" parent="0" />
        <mxCell id="ayIQZ9xIs7lsAsGRntKw-1" value="&lt;div align=&quot;justify&quot;&gt;&lt;b&gt;&lt;img src=&quot;data:image/png;base64,iVBORw0KGgoAAAANSUhEUgAAADAAAAAwCAYAAABXAvmHAAAACXBIWXMAAAsTAAALEwEAmpwYAAAKcklEQVR4nO1Ze3QU5RW/3zezOzO7Ozu72c1ryYu8A4ZsQrLhUQSigtoihxbbaivVIpyjSOtBra1WT3o8VY/SI74VEAQLIuWhgPKQl4ACIgFEUF4KKq2oCIG8Q/b23I+dbbKZ6CZi/Yd7zj2bmbl7v/v7vt997ATgolyUi9Jd0QHABwAcLqzYACAAAAr8UOJ2wiy7DZodKmuUODRFwFiJ3XCweV4XO+xzsxqHyu/+Dtc+zc6+Npys3iZDi9cFj/0A4YOh2KHpzBsGhjd40O1k9QCQ3IXt8Px0fmbXTB1XPepCTWFN32JLkuXVWR35PTTPjU6NfR05ZQkuoFRdki2dpkXOrfOgxKENAHIAwGuhvx4WlIUtaUYyPwMAg7qwLQKAn6p21vzvxW78zxIDHQpDO2f1DOAUAPwDANSeBi1zgD8m2qSDMmOtlUVSmAI6/bqBig3CusRPtleFs3o7Zw0yY82X95eFLWlmMg/bOGuiZ6YqnDVqnDen2OX6crejobdHDi9/yIlfvmqgT+O4e0ABrinNbgq6tI8dnL3Wk+AVzmBDlmr/anqfdJzRJx1D2TYR0KcL3ZjqksQiVvpofgDHVCrClrS3T8Llwewu7XcPKMArE3W8f5yKJ5Ya6FV5eEFxlrj/bigfXRI/DQADuhW9U2JzB3scX9dEFngoNxXdCg+fXWngjud19GlS89KS3pbBjPTpTYVpUgsF37beg5qNhe/PTgl3FfzDeYGwnbMvcwL87GO3aag72GGN87pVZTni+Y0B7wkAeLI78Rc7JV67NZQnHGypyEOFsya3xt6oKpUbRpTLjXYJdo5JNBpig1nbP4dsz6p29s0dv1Ra7hunoktjxxTOaheXnN/VWP15ktEIAFNUO/zVq7NNlG9uiW98vKCXeD63bwaqnO3tDoDnJvTynTAXICDEWQDIlzlMsstwj42xB0f53fWxwawpEwAoaYsUG/zdcLD5AHCJR+Y7nyxMswTwbFEaqpx/AwC/AYCRKmNPeWSpfnP5+Q18uyIPbUxUsvjExtjRJTH0+EtWUgs58ch8jSHxbT6bXL+y1JrXIxP0eofEacdGAUCJwli13ybXmSdqpU8U9ML+unamyKGcvjGQ0Eon2f65xFhrvNWIMYA2k/uxu/tIXgBpJ7d9SzA1lQV4f3YKFrvU2oBiq73Kp0f53FO1MdF3PPEAcEiMNX+fxX4Ilc5TyBEPAL/M2Cnzizsq83F1WQ5SWaNker4oHacV9MJH8wJCnytKE/dMpZI7vzgzqsuDvXFFabbQjeW5uKk8F1dFrleUZuOiflkiBx7IScU/ZCTir5I9zcMT9IaQ4awLGs6zFYajdlyqt5kDEIXs8QDw2mS5LuDQGhw2uVXmvM3r0BozEv21uWmBb4rzck+GSvqdHBKqODVsQOWZ8mBJY0WwpDVUGmwNBUvOlRf3PZefldmSn5nRkp+R3hLw+1pTE7xC3Q7tnEtVzyUZRkuyx2hONtxN6Yn++mCfwjNXVA2vveGmm+rurq5um/rMM/jMnDn4woIF4vOmiRNPMsba4h0gJUmSwss3bMBt+/fj/uPHf3Tdc/QoSrJMAOITRVVbdxw48L0W3bpvH76+aRO+um4drt2+Hbd/+GGPfdUcOYI2m+1c3AAMj+fsunfftXT2/rFj+M+lS/HP1dX4uwkTcPytt+LNkybhbXfeiXuPHRM2G3bupAUxt6AAC/v2xUBaGrp0Xahpc/Xo0di3X78O2r+yEt/eu7fTmjsPHUK7olAOxCeJyclfLF271hLA2OuvF4HdcPPNAsQd996LU+65B3VdRxM0AUhKTu5EA0VRotfZubn49OzZ+K+VK6Ma7N8fZ8yf32lNYoOiqi1xA/AnJh5btGqVJYCqkSNx2vTpne7n5Ocj5Y1JH4/X2+H5+vfew8SkpOh1WSiEcxcv7mAzeuxYfHDatE6+iX6apjXHDcDj9R7pCsDgoUNx+rx5ne4XB4O4YMWKKGcdTmeH529u24apvXpFrydOnoyT77qrg81d992Hvx0/vpPvdz74gPzFP0q43O6Di1evtgRAPH1pyRLx9+5PPhGVirR8wABR9uj+vs8/F3x3GwZ6ExIwPTMTs7KzUZZl8Yxs5i9bhgl+P4YGDsThI0bgL667TuQF+Y9dc8v776PT5aJZLD7RDeNQVwAGXXopAkBUGWMiUOL8io0bo3YmuE27duHqd97BZevX44q33oo+JyAzX34ZZ73yCj47dy4+MHWqKARWp0s+XLre0C0KdQXgx9CNNTWou900C8UnCT7f0SVr1lg6oypx1TXX4JCqKhw4ZAhWDhokPq8cNQq37NkjbDbv3o12u50WxeSUFEEfKpOXVlWJ/KD+QHSSZVmcHiklOFUmq3XJn8vliv8EfH7/Z0vffNMSQEFRkSifz7/0kuC8qX2KiwUlBGf37BFViChE1eeNzZtFmfQnJYlSayb0tkj+kFKi/mTYMHx8xgzLKqSqavxJ7PF6v6RFrQAk+HyWzYZOwazh1Ow45+KzvU1GVhau3LJF1HUCsz/Gx9DLLhP5EHu/5vBhaozxNzKXrtdSM7ICQOWROmPsfTr+9klKQIm77W3yCwuRGuT2jz7q1Cf2Hz+OlYMHi6SOvb/300+RcR6OG4Cqqo1dzS7UsIjbJndNJWDtd5z6hVlKTaVu/dauXaIrE4WcLpfIkey8POxXWir8Unm1WjcCIL4XXZIktdEiVo52ffxxB+6aSscca/vewYMdbGJ97jhwQIwdVH5fXr4cZy9cGJ2VYjVCIS2e+GXOeTie8kYBEaDY+0SxOYsWiYqyZuvW/4E8ciRqQ4n8woIFgvNPv/iiGCtoau1qLeV8Esf1k9LQNK2lK0c0cKmqKpoY0YYGNEmSRKk0baiS0DMqndSFqUQSheh7Js0oZ0IDB4rEHXb55aIDU95YNbJI7tV9x/vVqKQaHk9TVwBSAgGxe7FJJsly9JqaIOVK7HfJhihCp6ZqWnSsMJUm29/fcovlum7DoLdzGfEASPP5/ZYAaEHaxVjaUFDtAVBNpx3vlIiMiRP44LPPhP2+GAB0cldcffW3AaAXwd8pSW7DaLVyQmMyVRYzmc2kJADUVU07KpO0w7HgiXY0I9E1+Rkf+TFk6jVjx4pm9n0BUBn9YvHq1W2xTihQzeEQgVCA9En8NzweUQ7bJzfVeWpm7Qc/sjOrzN8eeUT8EGqvt9x+Oz41a1ZXJ0+jhD8uAABwe3pm5gHidqyz2HJJAdHJxPYNoolVae2Jzl64MKy73UehG0IN4/XikpIjNMpeiCB6qvOXLSO6nYy8puyW2BhjD9vt9vp+ZWWfT5w8+dQTM2cKhzTfW40TJn2o5pMNvZGgBkX1nn6G0sx/d3U1TpoyBcdNmEA/YlpHX3tt3c/GjDk5fMSIL0KDBx8vq6j4pLi09EBeYeGHbsM4oajqichL3x4LNY9rAeAhVdNWerzej1RN+4pz3mxyW5bls6Ts/AtY5JLUKNtsp1VVPe5wOPbrhrE9we9fl5Ka+lpqWtocf2LiVFVV/wQAE9vpDZF1TKUdL4b/gyiR/3XF1SUvykW5KHBB5b/MD0DnUMDnkwAAAABJRU5ErkJggg==&quot; width=&quot;48&quot; height=&quot;48&quot;&gt;Index.js data:&lt;/b&gt;&lt;br&gt;&lt;/div&gt;&lt;div align=&quot;justify&quot;&gt;&lt;ol&gt;&lt;li&gt;&lt;i&gt;User:&lt;/i&gt;&lt;/li&gt;&lt;ol&gt;&lt;li&gt;to check if user is logged in or not: redirect&lt;/li&gt;&lt;li&gt;get user calendar or user id that points to a calendar&lt;/li&gt;&lt;/ol&gt;&lt;li&gt;&lt;i&gt;Events&lt;/i&gt;&lt;/li&gt;&lt;ol&gt;&lt;li&gt;to populate User`s calendar&lt;br&gt;&lt;/li&gt;&lt;/ol&gt;&lt;/ol&gt;&lt;/div&gt;" style="verticalAlign=top;align=left;spacingTop=8;spacingLeft=2;spacingRight=12;shape=cube;size=10;direction=south;fontStyle=4;html=1;whiteSpace=wrap;" vertex="1" parent="1">
          <mxGeometry x="320" y="70" width="320" height="310" as="geometry" />
        </mxCell>
      </root>
    </mxGraphModel>
  </diagram>
</mxfile>
